<svg width="24" height="24" viewBox="0 0 24 24" fill="none" xmlns="http://www.w3.org/2000/svg">
<path d="M1.93902 13.0599C1.35366 12.4745 1.35366 11.5255 1.93902 10.9401L10.9401 1.93902C11.5255 1.35366 12.4745 1.35366 13.0599 1.93902L22.061 10.9401C22.6463 11.5255 22.6463 12.4745 22.061 13.0599L13.0599 22.061C12.4745 22.6463 11.5255 22.6463 10.9401 22.061L1.93902 13.0599Z" fill="#EE513B"/>
<path d="M9.11167 3.79614L8.2002 4.70765L10.5544 7.06183C10.4591 7.26614 10.406 7.49401 10.406 7.7343C10.406 8.4165 10.8346 8.99857 11.4372 9.2259V14.9848C10.8346 15.2122 10.406 15.7942 10.406 16.4764C10.406 17.3566 11.1195 18.0702 11.9997 18.0702C12.8799 18.0702 13.5934 17.3566 13.5934 16.4764C13.5934 15.858 13.2412 15.3217 12.7263 15.0576V9.23377L14.9767 11.4841C14.8861 11.6843 14.8357 11.9066 14.8357 12.1406C14.8357 13.0208 15.5492 13.7343 16.4294 13.7343C17.3096 13.7343 18.0232 13.0208 18.0232 12.1406C18.0232 11.2604 17.3096 10.5468 16.4294 10.5468C16.2583 10.5468 16.0936 10.5737 15.9391 10.6236L13.5223 8.20672C13.5685 8.05747 13.5934 7.89877 13.5934 7.7343C13.5934 6.85408 12.8799 6.14053 11.9997 6.14053C11.8352 6.14053 11.6766 6.16546 11.5273 6.21172L9.11167 3.79614Z" fill="white"/>
</svg>
