<svg width="24" height="24" viewBox="0 0 24 24" fill="none" xmlns="http://www.w3.org/2000/svg">
<g clip-path="url(#clip0_5_56)">
<path d="M12 2C9.61865 1.99102 7.31226 2.83215 5.49578 4.37206C3.6793 5.91198 2.47199 8.04958 2.09106 10.4003C1.71012 12.751 2.18057 15.1605 3.41777 17.1952C4.65496 19.23 6.57768 20.7565 8.84 21.5C9.34 21.58 9.5 21.27 9.5 21V19.31C6.73 19.91 6.14 18 6.14 18C5.95325 17.3789 5.5484 16.8462 5 16.5C4.09 15.88 5.07 15.9 5.07 15.9C5.3839 15.9406 5.68456 16.0516 5.9495 16.2248C6.21445 16.398 6.43682 16.6288 6.6 16.9C6.87778 17.3939 7.33932 17.7582 7.88426 17.9136C8.4292 18.0691 9.01346 18.0031 9.51 17.73C9.55556 17.2231 9.77868 16.7485 10.14 16.39C8 16.17 5.62 15.31 5.62 11.5C5.59108 10.5015 5.94939 9.53041 6.62 8.79C6.31554 7.92943 6.35131 6.98507 6.72 6.15C6.72 6.15 7.56 5.88 9.47 7.15C11.1076 6.70978 12.8324 6.70978 14.47 7.15C16.38 5.86 17.22 6.15 17.22 6.15C17.5887 6.98507 17.6245 7.92943 17.32 8.79C17.9906 9.53041 18.3489 10.5015 18.32 11.5C18.32 15.32 15.98 16.16 13.75 16.41C13.9902 16.6514 14.176 16.9414 14.295 17.2604C14.414 17.5795 14.4634 17.9203 14.44 18.26V21C14.44 21.27 14.6 21.59 15.11 21.5C17.3682 20.7578 19.2881 19.2354 20.5256 17.2059C21.7631 15.1764 22.2371 12.7724 21.8627 10.425C21.4883 8.07766 20.29 5.94041 18.4827 4.39649C16.6753 2.85257 14.377 2.00297 12 2Z" fill="#FFA500"/>
</g>
<defs>
<clipPath id="clip0_5_56">
<rect width="24" height="24" fill="white"/>
</clipPath>
</defs>
</svg>
