<svg width="24" height="24" viewBox="0 0 24 24" fill="none" xmlns="http://www.w3.org/2000/svg">
<g clip-path="url(#clip0_1_8)">
<path d="M16.6295 16.7614C17.5152 16.6649 18.1871 15.8606 18.1565 14.8954C18.126 13.9303 17.3625 13.1582 16.4462 13.1582H16.3851C15.4384 13.1903 14.7054 14.0268 14.7359 15.0241C14.7665 15.5067 14.9497 15.9249 15.2246 16.2145C14.1862 18.37 12.5981 19.9464 10.2159 21.2654C8.59718 22.1662 6.91742 22.4879 5.23767 22.2627C3.86332 22.0697 2.79439 21.4263 2.12249 20.3646C1.14517 18.7882 1.05355 17.0831 1.87816 15.378C2.45844 14.1555 3.37467 13.2547 3.95495 12.8043C3.83278 12.3861 3.64954 11.6783 3.55791 11.1635C-0.870534 14.5416 -0.412419 19.1099 0.931386 21.2654C1.93924 22.874 3.98549 23.8713 6.24552 23.8713C6.85634 23.8713 7.46716 23.807 8.07798 23.6461C11.9872 22.8418 14.9497 20.3968 16.6295 16.7614Z" fill="#764ABC"/>
<path d="M22.0047 12.7721C19.6836 9.90885 16.263 8.33244 12.3537 8.33244H11.8651C11.5902 7.75335 11.0099 7.36729 10.3686 7.36729H10.3075C9.36071 7.39946 8.62772 8.23592 8.65826 9.23324C8.6888 10.1984 9.45233 10.9705 10.3686 10.9705H10.4296C11.1015 10.9383 11.6818 10.4879 11.9261 9.87667H12.4759C14.797 9.87667 16.996 10.5844 18.9811 11.9678C20.5082 13.0295 21.6076 14.4129 22.2185 16.0858C22.7377 17.437 22.7071 18.756 22.1574 19.882C21.3022 21.5871 19.8668 22.5201 17.9733 22.5201C16.7516 22.5201 15.5911 22.134 14.9803 21.8445C14.6443 22.1662 14.0335 22.681 13.6059 23.0027C14.9192 23.6461 16.263 24 17.5457 24C20.4776 24 22.646 22.2949 23.4707 20.5898C24.3563 18.7239 24.2953 15.5067 22.0047 12.7721Z" fill="#764ABC"/>
<path d="M6.48985 17.3083C6.52039 18.2735 7.28392 19.0456 8.20015 19.0456H8.26123C9.208 19.0134 9.94098 18.1769 9.91044 17.1796C9.8799 16.2145 9.11638 15.4424 8.20015 15.4424H8.13906C8.07798 15.4424 7.98636 15.4424 7.92528 15.4745C6.6731 13.2869 6.1539 10.9062 6.33715 8.33244C6.45931 6.40214 7.07013 4.72922 8.13906 3.34584C9.02475 2.1555 10.7351 1.57641 11.8956 1.54424C15.133 1.47989 16.5073 5.72654 16.5989 7.43164C16.996 7.52815 17.6679 7.75335 18.126 7.91421C17.7595 2.70241 14.7054 0 11.7734 0C9.02475 0 6.48985 2.09115 5.482 5.17962C4.07711 9.29759 4.99334 13.2547 6.70364 16.3753C6.55093 16.6005 6.45931 16.9544 6.48985 17.3083Z" fill="#764ABC"/>
</g>
<defs>
<clipPath id="clip0_1_8">
<rect width="24" height="24" fill="white"/>
</clipPath>
</defs>
</svg>
